<?xml version="1.0" standalone="no"?>
<!DOCTYPE svg PUBLIC "-//W3C//DTD SVG 20010904//EN"
 "http://www.w3.org/TR/2001/REC-SVG-20010904/DTD/svg10.dtd">
<svg version="1.0" xmlns="http://www.w3.org/2000/svg"
 width="3274.000000pt" height="3701.000000pt" viewBox="0 0 3274.000000 3701.000000"
 preserveAspectRatio="xMidYMid meet">

<g transform="translate(0.000000,3701.000000) scale(0.100000,-0.100000)"
fill="#000000" stroke="none">
<path d="M6003 36963 c-28 -27 -107 -99 -176 -161 -68 -62 -140 -127 -159
-145 -18 -18 -78 -72 -133 -122 -108 -98 -141 -129 -351 -321 -77 -71 -182
-167 -233 -214 -51 -47 -105 -96 -120 -110 -15 -14 -71 -65 -126 -115 -54 -49
-113 -103 -131 -120 -17 -16 -49 -46 -71 -65 -21 -19 -79 -72 -128 -117 l-89
-83 3138 0 3138 0 132 123 c72 67 172 158 221 202 48 44 103 94 120 110 17 17
78 73 135 125 58 52 114 104 125 115 12 11 57 52 101 90 43 39 86 77 94 86 18
19 142 134 265 244 98 88 184 167 285 261 36 34 82 77 103 95 21 19 66 60 100
91 34 32 65 58 70 58 4 0 7 5 7 10 0 7 -1051 10 -3133 10 l-3133 0 -51 -47z"/>
<path d="M12769 36953 c-35 -31 -73 -66 -84 -77 -12 -12 -49 -46 -84 -76 -35
-30 -73 -64 -85 -76 -37 -36 -198 -185 -396 -364 -51 -47 -110 -101 -130 -120
-20 -19 -79 -73 -131 -120 -51 -47 -155 -141 -229 -210 -75 -69 -176 -161
-225 -205 -94 -85 -171 -156 -275 -254 l-65 -61 3142 0 c2607 0 3143 2 3150
13 8 14 120 120 268 252 86 77 119 107 291 266 126 116 193 178 289 264 48 44
107 98 130 120 23 22 82 76 131 120 48 44 152 139 229 210 78 72 181 166 230
210 49 44 109 99 134 122 l46 43 -3136 0 -3136 0 -64 -57z"/>
<path d="M19518 36927 c-51 -45 -105 -94 -119 -107 -53 -51 -246 -228 -304
-279 -33 -30 -64 -59 -70 -66 -5 -6 -32 -31 -60 -55 -27 -23 -102 -90 -165
-149 -63 -59 -138 -128 -165 -152 -28 -24 -59 -53 -71 -64 -11 -11 -63 -58
-114 -105 -52 -47 -124 -112 -160 -146 -36 -33 -97 -90 -136 -125 -38 -35
-116 -106 -172 -158 -56 -51 -111 -102 -123 -112 -22 -19 40 -19 3118 -19
l3140 0 55 53 c46 44 183 171 292 270 17 15 42 38 56 50 73 69 318 293 395
362 49 44 148 135 219 201 72 67 151 139 176 160 25 22 57 50 71 64 14 14 70
66 124 115 55 50 113 104 131 120 28 28 90 83 204 185 l44 40 -3136 0 -3137 0
-93 -83z"/>
<path d="M25888 36831 c-7 -10 -56 -65 -108 -121 -52 -57 -120 -131 -150 -164
-30 -33 -86 -94 -125 -136 -123 -134 -178 -194 -260 -285 -44 -49 -116 -127
-160 -174 -98 -105 -189 -205 -241 -263 -11 -12 -81 -89 -155 -169 -74 -80
-170 -185 -214 -234 -44 -49 -101 -111 -127 -139 l-48 -51 0 -3140 c1 -2796 2
-3138 16 -3120 17 23 109 124 359 396 33 36 98 107 145 159 47 51 98 107 113
124 129 139 222 240 327 356 68 74 151 164 184 200 34 36 99 108 146 160 47
52 114 126 150 165 36 38 91 98 123 132 l57 62 0 3130 c0 1955 -4 3131 -9
3131 -6 0 -16 -8 -23 -19z"/>
<path d="M4167 35024 c-34 -31 -69 -64 -77 -73 -8 -9 -49 -45 -90 -80 -41 -36
-82 -72 -90 -81 -19 -20 -147 -139 -265 -245 -49 -44 -116 -105 -150 -136 -33
-30 -96 -89 -140 -129 -44 -40 -107 -99 -140 -129 -34 -31 -101 -92 -150 -136
-49 -44 -108 -98 -130 -120 -23 -22 -82 -76 -130 -120 -248 -223 -344 -316
-333 -320 7 -3 1420 -4 3139 -3 l3126 3 24 26 c24 26 86 83 268 249 51 47 108
99 126 115 81 77 169 157 255 235 120 109 195 178 290 265 105 97 180 165 290
265 88 80 206 189 256 236 12 12 58 53 101 91 104 92 143 130 143 137 0 3
-1409 6 -3130 6 l-3130 0 -63 -56z"/>
<path d="M10979 35053 c-19 -16 -44 -37 -55 -48 -11 -11 -63 -58 -114 -105
-52 -47 -155 -141 -230 -210 -75 -69 -176 -161 -225 -205 -49 -44 -121 -110
-160 -146 -38 -36 -97 -90 -129 -120 -33 -30 -74 -67 -92 -84 -17 -16 -40 -37
-50 -45 -17 -14 -73 -66 -255 -234 -36 -34 -105 -97 -154 -141 -49 -44 -116
-105 -149 -136 -34 -31 -76 -69 -94 -84 -17 -15 -30 -31 -26 -36 3 -5 1266 -9
3130 -9 l3124 0 42 38 c24 20 49 44 58 53 19 20 149 140 265 244 113 101 245
223 265 244 9 9 51 48 95 86 43 39 88 79 100 90 12 11 68 63 125 115 57 52
116 106 130 120 15 14 69 63 120 110 159 144 232 211 301 274 151 140 242 221
255 229 8 4 14 12 14 17 0 6 -1159 10 -3129 10 l-3128 0 -34 -27z"/>
<path d="M17740 31930 l0 -3150 3150 0 3150 0 0 3150 0 3150 -3150 0 -3150 0
0 -3150z"/>
<path d="M17275 34888 c-15 -18 -64 -73 -109 -121 -102 -111 -119 -130 -236
-257 -52 -57 -106 -116 -120 -131 -14 -15 -63 -69 -110 -120 -47 -51 -141
-154 -210 -229 -69 -75 -161 -176 -205 -225 -44 -49 -93 -103 -110 -120 -16
-18 -73 -79 -125 -136 -52 -57 -104 -113 -115 -124 -11 -12 -51 -57 -90 -101
-38 -43 -73 -81 -78 -82 -4 -2 -23 -24 -42 -49 l-35 -46 0 -3122 c0 -1717 3
-3124 6 -3128 3 -3 38 31 78 76 98 112 264 293 326 357 14 14 54 59 90 100 36
41 72 82 81 90 22 21 147 156 244 264 44 50 91 101 105 115 13 14 45 49 69 76
24 28 92 102 151 165 59 63 127 138 150 165 24 28 48 55 55 60 6 6 45 46 85
90 40 44 98 107 129 140 l56 60 3 3124 c1 1749 -2 3129 -7 3134 -4 4 -20 -6
-36 -25z"/>
<path d="M2237 33094 c-34 -31 -69 -64 -77 -73 -8 -9 -49 -45 -90 -81 -41 -36
-113 -102 -160 -146 -47 -45 -107 -100 -135 -124 -27 -23 -54 -48 -60 -54 -5
-7 -32 -32 -60 -56 -27 -23 -104 -93 -170 -155 -66 -62 -140 -130 -165 -151
-25 -22 -57 -50 -71 -64 -14 -14 -65 -61 -114 -105 -50 -44 -108 -98 -131
-120 -41 -40 -177 -163 -264 -240 -25 -22 -49 -45 -55 -51 -5 -6 -43 -41 -82
-78 -43 -39 -68 -69 -60 -71 6 -3 1418 -4 3137 -3 l3125 3 51 50 c58 57 237
222 303 281 25 21 54 48 66 59 12 11 53 49 91 85 38 36 112 103 163 150 115
104 167 151 347 316 77 71 182 167 234 214 51 47 105 96 120 110 45 43 223
205 263 241 68 60 117 107 117 113 0 3 -1409 6 -3130 6 l-3130 0 -63 -56z"/>
<path d="M8920 30000 l0 -3150 3150 0 3150 0 0 3150 0 3150 -3150 0 -3150 0 0
-3150z"/>
<path d="M8578 33041 c-7 -10 -56 -65 -108 -122 -52 -57 -120 -130 -150 -163
-30 -33 -86 -94 -125 -136 -38 -42 -106 -115 -150 -164 -44 -49 -91 -100 -105
-115 -13 -14 -44 -48 -69 -76 -24 -27 -83 -91 -130 -141 -47 -50 -111 -119
-141 -154 -30 -34 -64 -72 -76 -84 -11 -11 -52 -55 -89 -96 -38 -41 -96 -105
-129 -141 -34 -36 -99 -108 -146 -159 -47 -52 -92 -101 -100 -110 -8 -9 -30
-33 -47 -53 l-33 -38 0 -3124 c0 -1935 4 -3126 9 -3130 6 -3 13 1 18 9 8 14
87 103 237 266 117 127 177 192 266 290 47 51 96 105 110 120 14 14 68 73 120
130 52 57 104 113 115 125 11 12 52 57 90 100 39 44 77 86 86 95 19 18 128
136 249 270 131 146 221 244 239 260 9 9 33 34 54 58 l37 42 0 3124 c0 1920
-4 3127 -9 3131 -5 3 -16 -3 -23 -14z"/>
<path d="M430 28080 l0 -3150 3150 0 3150 0 0 3150 0 3150 -3150 0 -3150 0 0
-3150z"/>
<path d="M25804 30253 c-109 -117 -162 -174 -329 -357 -49 -55 -103 -113 -120
-131 -16 -17 -66 -71 -110 -120 -72 -81 -133 -147 -276 -300 -25 -27 -60 -66
-78 -85 -17 -19 -42 -46 -55 -60 -12 -14 -70 -77 -127 -140 -58 -63 -116 -127
-129 -141 -14 -14 -61 -65 -105 -114 -44 -49 -101 -112 -127 -141 l-48 -51 0
-3139 c1 -2795 2 -3137 16 -3119 16 21 90 103 303 334 137 149 169 184 326
356 50 54 104 113 120 130 17 17 66 71 110 120 44 49 136 150 205 225 69 75
163 178 210 230 90 100 178 195 272 294 l58 61 0 3133 c0 1722 -2 3132 -4
3132 -2 0 -53 -53 -112 -117z"/>
<path d="M17644 28392 c-44 -42 -109 -102 -144 -132 -34 -30 -72 -64 -84 -76
-35 -34 -176 -164 -271 -249 -49 -44 -100 -91 -114 -105 -14 -13 -48 -45 -76
-69 -27 -24 -102 -92 -165 -151 -63 -59 -135 -125 -160 -146 -24 -21 -51 -46
-60 -55 -18 -20 -145 -136 -265 -244 -49 -44 -145 -132 -213 -195 l-125 -115
3136 -3 3136 -2 53 51 c29 28 91 86 138 128 47 42 97 88 111 101 14 14 65 61
114 105 92 83 210 191 255 235 15 14 60 54 101 89 41 36 81 72 89 81 19 21
148 140 270 250 52 47 155 141 230 210 75 69 176 161 224 205 49 44 109 99
134 123 l46 42 -3140 0 -3139 0 -81 -78z"/>
<path d="M23973 28304 c-34 -38 -84 -94 -112 -124 -28 -30 -77 -84 -109 -118
-31 -35 -70 -78 -87 -96 -67 -72 -165 -177 -240 -261 -44 -49 -105 -116 -136
-149 -73 -79 -290 -316 -404 -441 -49 -54 -103 -113 -120 -130 -16 -17 -66
-71 -110 -120 -44 -49 -106 -116 -137 -149 -31 -34 -66 -73 -77 -88 l-21 -26
0 -3133 0 -3133 43 46 c23 24 78 85 122 133 44 49 140 154 214 234 146 159
191 208 326 356 50 54 104 113 120 130 17 18 66 72 110 121 44 48 113 124 154
169 145 156 187 202 266 290 127 141 227 249 247 265 17 15 18 127 16 3154
l-3 3138 -62 -68z"/>
<path d="M8802 26486 c-37 -36 -96 -91 -131 -123 -36 -32 -79 -71 -97 -88 -18
-16 -50 -45 -71 -64 -21 -19 -80 -74 -131 -123 -51 -48 -96 -88 -99 -88 -3 0
-29 -22 -57 -49 -55 -54 -71 -69 -227 -211 -57 -52 -118 -108 -135 -125 -18
-16 -60 -55 -93 -85 -112 -101 -260 -236 -356 -325 -18 -16 -74 -68 -126 -115
-51 -47 -111 -102 -134 -122 l-40 -37 3164 -1 3164 0 22 23 c12 12 40 37 61
56 22 19 84 76 139 127 107 100 196 181 248 229 19 17 78 71 132 120 55 50
113 104 131 120 17 17 59 55 93 85 34 30 103 94 154 141 51 47 109 101 131
120 21 19 53 48 71 64 18 17 74 68 126 115 89 81 230 212 275 255 32 30 135
122 164 144 l25 20 -3168 1 -3168 0 -67 -64z"/>
<path d="M15690 23400 l0 -3150 3150 0 3150 0 0 3150 0 3150 -3150 0 -3150 0
0 -3150z"/>
<path d="M15170 26413 c-18 -21 -65 -72 -104 -113 -39 -41 -88 -95 -109 -120
-22 -25 -88 -97 -147 -160 -59 -63 -127 -137 -151 -165 -24 -27 -56 -62 -69
-76 -14 -14 -61 -65 -105 -114 -44 -49 -136 -150 -205 -225 -69 -75 -168 -182
-220 -240 -52 -57 -106 -116 -120 -130 -14 -15 -63 -69 -110 -120 -47 -52
-112 -122 -145 -157 -32 -35 -67 -76 -77 -91 -17 -26 -18 -171 -18 -3149 0
-1718 3 -3123 6 -3123 7 0 49 43 164 170 47 52 141 155 210 230 69 75 163 178
210 230 47 51 96 105 110 120 14 15 66 71 115 125 50 54 115 126 146 159 30
34 89 97 129 141 40 44 99 107 129 141 31 33 94 102 141 154 158 175 223 245
244 262 l21 17 3 3127 c1 1725 -2 3132 -6 3136 -5 5 -24 -8 -42 -29z"/>
<path d="M430 21490 l0 -3150 3150 0 3150 0 0 3150 0 3150 -3150 0 -3150 0 0
-3150z"/>
<path d="M7040 21490 l0 -3150 3150 0 3150 0 0 3150 0 3150 -3150 0 -3150 0 0
-3150z"/>
<path d="M25798 23767 c-62 -67 -151 -165 -198 -216 -47 -52 -101 -110 -120
-130 -19 -20 -73 -79 -120 -130 -114 -126 -181 -200 -265 -291 -108 -118 -173
-188 -265 -290 -47 -52 -119 -130 -160 -174 -41 -44 -95 -102 -120 -130 -25
-27 -91 -100 -147 -162 l-103 -112 0 -3138 0 -3138 38 45 c20 24 51 58 67 75
17 17 73 78 125 135 52 56 120 130 150 163 90 97 102 111 165 182 33 37 67 75
75 84 8 8 51 54 95 100 44 47 116 126 160 175 44 49 140 154 214 234 165 180
212 231 326 356 50 54 116 126 147 159 l58 61 0 3133 c0 1722 -2 3132 -4 3132
-2 0 -55 -55 -118 -123z"/>
<path d="M24006 21789 c-16 -19 -65 -73 -110 -121 -44 -47 -108 -117 -141
-154 -33 -37 -71 -79 -85 -94 -24 -26 -161 -175 -266 -289 -28 -31 -109 -119
-180 -196 -71 -78 -167 -183 -214 -234 -47 -52 -96 -106 -110 -121 -14 -15
-68 -74 -120 -131 -52 -57 -106 -115 -120 -129 -14 -14 -53 -56 -87 -95 -34
-38 -82 -92 -107 -119 l-46 -49 0 -3136 0 -3136 43 46 c23 25 80 88 127 139
100 111 229 251 244 265 6 6 43 46 81 90 39 44 77 86 86 95 20 19 141 150 244
265 44 49 91 100 105 114 13 14 45 49 69 76 24 28 94 103 155 168 61 66 113
123 116 127 3 5 53 60 111 122 58 62 127 138 154 168 26 30 56 62 66 70 19 15
19 91 17 3154 l-3 3140 -29 -35z"/>
<path d="M15399 19852 c-63 -59 -135 -125 -160 -147 -24 -22 -80 -74 -125
-115 -44 -41 -122 -113 -174 -160 -52 -47 -110 -100 -129 -118 -20 -18 -45
-41 -56 -51 -11 -9 -56 -51 -100 -92 -109 -100 -183 -168 -295 -269 -52 -47
-110 -101 -130 -120 -21 -19 -77 -71 -126 -116 -49 -44 -149 -136 -221 -202
l-133 -122 3141 0 3140 0 22 24 c12 13 87 84 167 156 80 73 170 156 201 184
30 28 100 92 154 141 54 50 113 104 130 120 17 17 62 57 100 90 37 33 75 67
84 76 17 16 133 124 242 224 36 33 105 96 154 140 97 88 214 196 254 235 14
14 60 54 101 90 41 37 93 83 114 103 l40 37 -3140 0 -3139 -1 -116 -107z"/>
<path d="M21845 19654 c-77 -85 -153 -170 -170 -188 -45 -48 -216 -235 -245
-266 -14 -15 -63 -69 -110 -121 -114 -126 -229 -251 -249 -269 -9 -8 -45 -49
-80 -90 -36 -41 -73 -82 -82 -90 -9 -8 -38 -40 -64 -70 -26 -30 -84 -94 -129
-141 -45 -47 -119 -128 -166 -180 -47 -51 -106 -117 -132 -145 l-48 -51 0
-3138 0 -3138 43 49 c23 26 53 60 67 74 14 15 66 71 115 126 166 182 228 249
244 264 9 8 45 49 80 90 36 41 72 82 81 90 21 19 140 148 250 270 47 52 143
157 214 235 71 77 152 165 180 196 174 190 237 259 288 313 l58 61 0 3138 c0
1725 -1 3137 -2 3136 -2 0 -66 -70 -143 -155z"/>
<path d="M430 14910 l0 -3150 3150 0 3150 0 0 3150 0 3150 -3150 0 -3150 0 0
-3150z"/>
<path d="M7040 14910 l0 -3150 3150 0 3150 0 0 3150 0 3150 -3150 0 -3150 0 0
-3150z"/>
<path d="M13650 14910 l0 -3150 3150 0 3150 0 0 3150 0 3150 -3150 0 -3150 0
0 -3150z"/>
<path d="M25069 13683 c-19 -16 -44 -37 -55 -48 -11 -11 -63 -58 -114 -105
-52 -47 -155 -141 -230 -210 -75 -69 -176 -161 -225 -205 -49 -44 -121 -110
-160 -146 -38 -36 -97 -90 -129 -120 -33 -30 -74 -67 -92 -84 -17 -16 -40 -37
-50 -45 -17 -14 -73 -66 -255 -234 -36 -34 -105 -97 -154 -141 -49 -44 -116
-105 -149 -136 -34 -31 -76 -69 -94 -84 -17 -15 -30 -31 -26 -36 3 -5 1266 -9
3130 -9 l3124 0 42 38 c24 20 49 44 58 53 19 20 149 140 265 244 113 101 245
223 265 244 9 9 51 48 95 86 43 39 88 79 100 90 12 11 68 63 125 115 57 52
116 106 130 120 15 14 69 63 120 110 159 144 232 211 301 274 151 140 242 221
255 229 8 4 14 12 14 17 0 6 -1159 10 -3129 10 l-3128 0 -34 -27z"/>
<path d="M31357 13608 c-20 -24 -55 -64 -79 -89 -24 -25 -81 -88 -128 -140
-47 -51 -116 -127 -155 -169 -121 -131 -177 -193 -260 -285 -44 -49 -116 -127
-160 -174 -98 -105 -189 -205 -241 -263 -11 -12 -81 -89 -155 -169 -74 -80
-170 -185 -214 -234 -44 -49 -101 -111 -127 -139 l-48 -51 0 -1797 0 -1798
-130 0 -130 0 0 1790 0 1790 -3150 0 -3150 0 0 -3150 0 -3150 535 0 535 0 0
-2705 0 -2705 3150 0 3150 0 0 3150 0 3150 -2980 2 -2980 3 43 95 43 95 2971
5 2972 5 37 35 c21 19 45 42 53 51 22 22 159 148 266 244 49 44 117 106 151
138 33 31 67 57 74 57 8 0 68 55 134 123 67 67 168 165 225 217 58 52 117 106
131 120 15 14 69 63 120 110 159 144 232 211 301 274 151 140 242 221 255 229
8 4 14 12 14 17 0 6 -194 10 -510 10 l-510 0 0 2675 c0 1532 -4 2675 -9 2675
-5 0 -25 -19 -44 -42z"/>
<path d="M2799 9593 c-19 -16 -44 -37 -55 -48 -11 -11 -63 -58 -114 -105 -52
-47 -155 -141 -230 -210 -75 -69 -176 -161 -225 -205 -49 -44 -121 -110 -160
-146 -38 -36 -97 -90 -129 -120 -33 -30 -74 -67 -92 -84 -17 -16 -40 -37 -50
-45 -17 -14 -73 -66 -255 -234 -36 -34 -105 -97 -154 -141 -49 -44 -116 -105
-149 -136 -34 -31 -76 -69 -94 -84 -17 -15 -30 -31 -26 -36 3 -5 1266 -9 3130
-9 l3124 0 42 38 c24 20 49 44 58 53 19 20 149 140 265 244 113 101 245 223
265 244 9 9 51 48 95 86 43 39 88 79 100 90 12 11 68 63 125 115 57 52 116
106 130 120 15 14 69 63 120 110 159 144 232 211 301 274 151 140 242 221 255
229 8 4 14 12 14 17 0 6 -1159 10 -3129 10 l-3128 0 -34 -27z"/>
<path d="M15649 9593 c-19 -16 -44 -37 -55 -48 -11 -11 -63 -58 -114 -105 -52
-47 -155 -141 -230 -210 -75 -69 -176 -161 -225 -205 -49 -44 -121 -110 -160
-146 -38 -36 -97 -90 -129 -120 -33 -30 -74 -67 -92 -84 -17 -16 -40 -37 -50
-45 -17 -14 -73 -66 -255 -234 -36 -34 -105 -97 -154 -141 -49 -44 -116 -105
-149 -136 -34 -31 -76 -69 -94 -84 -17 -15 -30 -31 -26 -36 3 -5 1266 -9 3130
-9 l3124 0 42 38 c24 20 49 44 58 53 19 20 149 140 265 244 113 101 245 223
265 244 9 9 51 48 95 86 43 39 88 79 100 90 12 11 68 63 125 115 57 52 116
106 130 120 15 14 69 63 120 110 159 144 232 211 301 274 151 140 242 221 255
229 8 4 14 12 14 17 0 6 -1159 10 -3129 10 l-3128 0 -34 -27z"/>
<path d="M9087 9518 c-20 -24 -55 -64 -79 -89 -24 -25 -81 -88 -128 -140 -47
-51 -116 -127 -155 -169 -121 -131 -177 -193 -260 -285 -44 -49 -116 -127
-160 -174 -98 -105 -189 -205 -241 -263 -11 -12 -81 -89 -155 -169 -74 -80
-170 -185 -214 -234 -44 -49 -101 -111 -127 -139 l-48 -51 0 -3140 c1 -2796 2
-3138 16 -3120 17 23 109 124 359 396 33 36 98 107 145 159 47 51 98 107 113
124 129 139 222 240 327 356 68 74 151 164 184 200 34 36 99 108 146 160 47
52 114 126 150 165 36 38 91 98 123 132 l57 62 0 3130 c0 1795 -4 3131 -9
3131 -5 0 -25 -19 -44 -42z"/>
<path d="M21937 9518 c-20 -24 -55 -64 -79 -89 -24 -25 -81 -88 -128 -140 -47
-51 -116 -127 -155 -169 -121 -131 -177 -193 -260 -285 -44 -49 -116 -127
-160 -174 -98 -105 -189 -205 -241 -263 -11 -12 -81 -89 -155 -169 -74 -80
-170 -185 -214 -234 -44 -49 -101 -111 -127 -139 l-48 -51 0 -3140 c1 -2796 2
-3138 16 -3120 17 23 109 124 359 396 33 36 98 107 145 159 47 51 98 107 113
124 129 139 222 240 327 356 68 74 151 164 184 200 34 36 99 108 146 160 47
52 114 126 150 165 36 38 91 98 123 132 l57 62 0 3130 c0 1795 -4 3131 -9
3131 -5 0 -25 -19 -44 -42z"/>
<path d="M32427 8198 c-20 -24 -55 -64 -79 -89 -24 -25 -81 -88 -128 -140 -47
-51 -116 -127 -155 -169 -121 -131 -177 -193 -260 -285 -44 -49 -116 -127
-160 -174 -98 -105 -189 -205 -241 -263 -11 -12 -81 -89 -155 -169 -74 -80
-170 -185 -214 -234 -44 -49 -101 -111 -127 -139 l-48 -51 0 -3140 c1 -2796 2
-3138 16 -3120 17 23 109 124 359 396 33 36 98 107 145 159 47 51 98 107 113
124 129 139 222 240 327 356 68 74 151 164 184 200 34 36 99 108 146 160 47
52 114 126 150 165 36 38 91 98 123 132 l57 62 0 3130 c0 1795 -4 3131 -9
3131 -5 0 -25 -19 -44 -42z"/>
<path d="M960 4640 l0 -3150 3150 0 3150 0 0 3150 0 3150 -3150 0 -3150 0 0
-3150z"/>
<path d="M13810 4640 l0 -3150 3150 0 3150 0 0 3150 0 3150 -3150 0 -3150 0 0
-3150z"/>
</g>
</svg>
